<svg width="58" height="72" viewBox="0 0 58 72" fill="none" xmlns="http://www.w3.org/2000/svg">
<g id="Icon">
<path id="Vector" d="M57.2498 1.40093L47.8795 0.0147489C47.6023 -0.0406986 47.3251 0.0701895 47.2142 0.181084L43.2221 5.39314C42.9449 5.72582 42.8895 6.1694 43.0003 6.55754C43.1112 6.94567 42.7786 7.27836 42.3905 7.22291L39.1192 6.50209C38.6202 6.39119 38.0657 6.55755 37.733 7.00113L24.7588 23.6353C24.537 23.968 24.0935 24.0789 23.7054 23.9126L18.7707 21.6947C18.3272 21.4729 17.8282 21.5283 17.44 21.8056L14.945 23.5244C14.5569 23.8017 14.0024 23.8571 13.5589 23.6353L12.3391 23.0254C11.5628 22.6373 10.6203 23.0809 10.3985 23.9126L9.51135 27.8493C9.28957 28.7919 9.67769 29.7346 10.5094 30.2336L12.3945 31.398L18.4381 35.113L21.3767 36.9427C22.2083 37.4418 23.2618 37.3308 23.9826 36.7209L28.9172 32.396C29.3053 32.0634 29.9152 31.9525 30.3588 32.2297L31.8558 33.006C32.3548 33.2832 32.9647 33.1723 33.3529 32.7842L35.8479 30.4554C36.236 30.0672 36.8459 30.0118 37.2895 30.2336L41.0043 31.9525C41.5588 32.2297 42.2241 32.0634 42.6122 31.5643L44.331 29.3464L57.3607 12.6568C57.9706 11.8805 57.5825 10.7161 56.5845 10.4943L53.7013 9.82893C53.0914 9.71804 52.8142 8.94178 53.2577 8.4982L57.7488 2.898C58.1924 2.23264 57.9151 1.51183 57.2498 1.40093Z" fill="#C4C4CC"/>
<path id="Vector_2" d="M14.2798 35.002C14.0025 34.8357 13.7253 35.1129 13.8362 35.3901L15.2223 39.0497C15.3332 39.3269 15.3332 39.6041 15.2778 39.8814L14.058 44.6498C14.0025 44.9825 14.1134 45.3152 14.3352 45.4815L17.8283 48.1985C18.1609 48.4203 18.6045 48.4203 18.8817 48.143L22.5411 44.9271C22.7629 44.7607 23.0401 44.6498 23.2619 44.5944L27.4203 44.1508C27.6975 44.0954 27.8084 43.7072 27.5312 43.5409L14.2798 35.002Z" fill="#C4C4CC"/>
<path id="Vector_3" d="M13.0599 47.3113C12.8381 47.145 12.5054 47.0895 12.2282 47.2004L9.28961 48.642C9.12327 48.6975 9.01237 48.8638 8.90148 49.0302L2.63616 64.5C2.63616 64.5555 2.63616 64.5554 2.63616 64.6109C2.69161 64.6663 2.74705 64.7218 2.85794 64.7218L4.29952 64.1673C4.35497 64.1673 4.41041 64.1673 4.46585 64.1673C4.5213 64.2228 4.57675 64.3337 4.5213 64.3891L0.030222 71.7636C-0.0806688 71.93 0.141118 72.0963 0.252008 71.93L16.4975 55.6284C16.6638 55.4621 16.7193 55.2958 16.7747 55.074L17.1074 50.8599C17.1074 50.5827 16.9965 50.3609 16.8302 50.1946L13.0599 47.3113Z" fill="#C4C4CC"/>
</g>
</svg>
